<?xml version="1.0" encoding="UTF-8" standalone="no"?>
<svg
   xmlns="http://www.w3.org/2000/svg"
   width="128"
   height="128"
   viewBox="0 0 33.866666 33.866668"
   version="1.1">
  <path id="logo"
     d="M 10.334155,8.4666667 C 9.8805054,8.925748 9.4504836,9.3476046 9.0440896,9.732241 c -1.1057708,1.054644 -1.8665784,1.854933 -2.2824235,2.400867 -0.4158452,0.545934 -0.7466313,1.110479 -0.992358,1.693635 -0.2457268,0.570749 -0.4252967,1.20974 -0.5387087,1.916972 -0.1228638,0.843715 -0.09451,1.668821 0.085059,2.475313 0.1795696,0.794086 0.5198067,1.43928 1.0207112,1.935583 0.5103551,0.496308 1.143574,0.781682 1.899657,0.856124 0.6048656,-0.918161 1.0679662,-1.550949 1.3893014,-1.89836 0.3307858,-0.359821 0.656847,-0.539732 0.978182,-0.539732 0.699377,0 1.228633,0.291579 1.587773,0.874736 0.359139,0.583157 0.463101,1.358629 0.311883,2.32642 -0.103961,0.694825 -0.359138,1.315204 -0.765533,1.861137 -0.396943,0.545934 -0.897848,1.023627 -1.502714,1.433078 -0.6426694,-1.067052 -1.4790861,-1.600579 -2.5092478,-1.600579 -0.6521216,0 -1.3609486,0.248153 -2.1264817,0.744456 C 4.8336561,24.708194 4.0255928,25.452649 3.175,26.445255 l 0.5245325,0.949179 c 0.4820023,-0.595564 0.9120244,-1.017422 1.2900653,-1.265574 0.3874925,-0.248151 0.7938864,-0.372228 1.2191829,-0.372228 0.4631004,0 0.9592794,0.217132 1.4885375,0.651401 0.5292573,0.434266 0.9545537,0.980199 1.275889,1.637801 0.3402368,-0.335004 0.7041017,-0.670009 1.0915938,-1.005013 1.238084,-1.054646 2.121756,-1.89216 2.651014,-2.512538 0.529258,-0.62038 0.959279,-1.265575 1.290065,-1.935583 0.330786,-0.670009 0.557612,-1.38965 0.680474,-2.15892 0.217375,-1.43928 0.02363,-2.630408 -0.581237,-3.573384 -0.595416,-0.94298 -1.516891,-1.45169 -2.764427,-1.526132 l -0.581238,0.856123 c -0.170119,0.248153 -0.340238,0.477694 -0.510356,0.688623 -0.160668,0.198521 -0.3260606,0.372228 -0.4961791,0.521118 -0.1701192,0.136482 -0.311884,0.229538 -0.4252963,0.279169 -0.1134115,0.04963 -0.2315506,0.07445 -0.3544134,0.07445 -0.4063946,0 -0.7560824,-0.148893 -1.0490643,-0.446673 C 7.6311612,16.99688 7.4279634,16.581227 7.3145511,16.060108 7.2105922,15.526582 7.2058649,14.949629 7.3003749,14.329251 c 0.094511,-0.62038 0.3024332,-1.197333 0.623768,-1.730858 0.321335,-0.545935 0.6993759,-0.96159 1.1341236,-1.246962 0.3402368,0.521117 0.69465,0.887142 1.0632405,1.098071 0.378041,0.210929 0.850593,0.316393 1.417654,0.316393 1.379851,0 2.773879,-0.973995 4.182082,-2.9219858 L 15.083298,8.9505625 c -0.803337,1.042238 -1.625577,1.5633555 -2.466719,1.5633555 -0.519806,0 -0.973456,-0.179909 -1.360949,-0.5397298 C 10.868139,9.601962 10.56098,9.0994539 10.334155,8.4666667 Z M 28.08319,8.6341689 c -1.427105,1.1787207 -3.525235,2.5001281 -6.294386,3.9642241 0.05671,-0.843717 0.04725,-1.482707 -0.02836,-1.916973 -0.06616,-0.446672 -0.18902,-0.8313072 -0.368591,-1.1539044 -0.179569,-0.3225972 -0.425296,-0.6079712 -0.737179,-0.8561235 -0.311884,0.31019 -0.671024,0.6327872 -1.077418,0.9677916 -0.406395,0.3225973 -1.020711,0.7754733 -1.84295,1.3586303 -0.340238,0.235745 -0.680475,0.483896 -1.020712,0.744455 l 0.255178,1.07946 c 0.359139,-0.31019 0.694651,-0.533526 1.006534,-0.67001 0.311884,-0.136483 0.567062,-0.204724 0.765534,-0.204724 0.321335,0 0.529258,0.210929 0.623768,0.632786 0.09451,0.409451 0.0756,1.048441 -0.05671,1.916972 L 17.40824,26.929151 h 2.239895 l 1.942186,-12.767403 c 1.039613,-0.607971 1.904382,-1.079459 2.594308,-1.414465 0.699376,-0.335003 1.162476,-0.502507 1.389301,-0.502507 0.179571,0 0.349688,0.08686 0.510356,0.26056 0.170118,0.161298 0.302432,0.390838 0.396942,0.688621 0.103961,0.285372 0.137042,0.564544 0.09924,0.837511 l -1.346773,8.821791 c -0.217376,1.402057 -0.23155,2.493924 -0.04253,3.275601 0.18902,0.781679 0.552885,1.340019 1.091592,1.675024 1.474361,-1.042237 2.646289,-1.792894 3.515784,-2.251974 L 29.60007,24.416615 c -0.207922,0.136482 -0.434748,0.260558 -0.680475,0.372227 -0.236275,0.111662 -0.467824,0.167504 -0.694648,0.167504 -0.378041,0 -0.609593,-0.254357 -0.694652,-0.763068 -0.07561,-0.508711 -0.02836,-1.346221 0.141765,-2.512534 l 1.034889,-6.774542 c 0.10396,-0.682416 0.226825,-1.172517 0.36859,-1.470298 0.141766,-0.297781 0.330786,-0.521117 0.567062,-0.670009 0.236276,-0.148893 0.548159,-0.235739 0.935652,-0.260559 l 0.113414,-0.967792 c -0.472552,-0.223336 -0.940379,-0.583157 -1.40348,-1.07946 -0.45365,-0.496303 -0.855316,-1.1042742 -1.205005,-1.8239151 z" />
</svg>
