<?xml version="1.0" encoding="UTF-8"?>
<svg version="1.1" xmlns="http://www.w3.org/2000/svg" xmlns:xlink="http://www.w3.org/1999/xlink" x="0px" y="0px" width="512px" height="512px" viewBox="0 0 512 512" enable-background="new 0 0 512 512" xml:space="preserve">
  <path id="brightness-up" fill-rule="evenodd" clip-rule="evenodd" d="M184.574,154.754l-72.336-72.314L83.316,111.36l72.314,72.314L184.574,154.754z     M134.167,235.546H31.889v40.908h102.279V235.546z M277.332,30.989h-40.886v102.279h40.886V30.989z M83.316,400.662l28.922,28.922    l72.336-72.315l-28.943-28.942L83.316,400.662z M430.483,111.36L401.54,82.439l-72.314,72.314l28.899,28.921L430.483,111.36z     M379.61,235.546v40.908h102.278v-40.908H379.61z M329.226,357.269l72.314,72.315l28.943-28.922l-72.358-72.336L329.226,357.269z     M257.244,173.576c-45.435,0-82.236,36.823-82.236,82.236c0,45.413,36.801,82.235,82.236,82.235    c45.391,0,82.235-36.822,82.235-82.235C339.479,210.399,302.635,173.576,257.244,173.576z M257.222,295.587    c-21.996,0-39.841-17.846-39.841-39.842s17.845-39.842,39.841-39.842c21.974,0,39.819,17.846,39.819,39.842    S279.195,295.587,257.222,295.587z M236.446,481.012h40.886V378.732h-40.886V481.012z"/>
  <path id="brightness-down" fill-rule="evenodd" clip-rule="evenodd" d="M106.785,224.104h-75v49.991h75V224.104z M281.767,24.114h-49.991v75h49.991    V24.114z M80.013,390.514l35.343,35.371l53.029-53.029l-35.344-35.37L80.013,390.514z M433.557,107.685l-35.371-35.344    l-53.001,53.029l35.315,35.343L433.557,107.685z M168.385,125.37l-53.029-53.029l-35.343,35.344l53.028,53.029L168.385,125.37z     M345.185,372.855l53.001,53.029l35.371-35.371L380.5,337.485L345.185,372.855z M406.757,224.104v49.991h75.028v-49.991H406.757z     M231.776,474.086h49.991v-75h-49.991V474.086z M257.191,149.81c-54.711,0-99.032,44.348-99.032,99.06    c0,54.684,44.321,99.032,99.032,99.032c54.684,0,99.06-44.349,99.06-99.032C356.251,194.158,311.875,149.81,257.191,149.81z     M257.191,298.779c-27.613,0-49.991-22.379-49.991-49.992s22.378-49.964,49.991-49.964c27.586,0,49.964,22.352,49.964,49.964    S284.777,298.779,257.191,298.779z"/>
  <path id="thread" d="M308.375,0L512,203.656l-67.875,22.625L285.75,67.89L308.375,0z M407.313,263.062l-90.5-90.5l-67.875-67.875L90.516,172.562
  L0,444.094l22.625,22.625l148.672-148.656c-14.422-24.563-11.328-56.563,9.719-77.625c25-24.984,65.547-24.984,90.547,0
  c25,25,25,65.531,0,90.5c-21.063,21.063-53.078,24.188-77.641,9.75L45.266,489.375L67.891,512l271.547-90.531L407.313,263.062z"/>
  <path id="retweet" d="M422.936,31H89.065C56.996,31,31,56.996,31,89.064v333.871C31,455.003,56.996,481,89.065,481h333.871  C455.003,481,481,455.003,481,422.935V89.064C481,56.996,455.003,31,422.936,31z M130.219,360.969  c-7.216,0.07-13.451-6.515-13.155-13.692c-0.04-36.435,0.023-72.862-0.023-109.289c-19.554-0.078-39.101,0.032-58.654-0.054  c25.968-28.813,52.208-57.392,78.41-85.995c1.356-2.392,2.923,0.382,4.139,1.474c25.563,28.228,51.522,56.105,76.914,84.482  c-19.531,0.195-39.062-0.048-58.592,0.117c-0.077,26.871-0.039,53.743-0.015,80.615c21.112,0.188,100.677-0.024,121.796,0.108  c13.592,14.177,27.613,27.948,41.064,42.258C277.625,360.994,174.696,361.032,130.219,360.969z M375.219,360.079  c-1.199,2.214-2.648,0.039-3.756-1.06c-25.641-28.415-51.748-56.409-77.303-84.895c19.49-0.171,38.975,0,58.465-0.086  c0.195-26.911,0.172-53.83,0.008-80.733c-21.057-0.085-98.237,0.008-119.294-0.047c-13.584-14.207-27.621-27.986-41.135-42.264  c44.245-0.046,144.601-0.031,188.837-0.007c7.164-0.304,13.826,5.759,13.85,12.984c0.125,36.684-0.008,73.376,0.063,110.06  c19.553,0.07,39.107-0.016,58.66,0.047C427.6,302.851,401.36,331.424,375.219,360.079z"/>
  <g id="reply">
    <path d="M168,288c54.125,0,98-50.156,98-112S222.125,64,168,64s-98,50.156-98,112S113.875,288,168,288z M114.375,145.484   C121.125,163.063,142.438,176,168,176s46.906-12.938,53.625-30.516C231.688,157.609,238,173,238,190c0,38.656-31.344,70-70,70   c-38.625,0-70-31.344-70-70C98,173,104.313,157.609,114.375,145.484z"/>
    <path d="M252,316h-28l-56,112l-56-112H84c-46.406,0-84,37.594-84,84v84c0,15.469,12.531,28,28,28h280c15.469,0,28-12.531,28-28v-84   C336,353.594,298.406,316,252,316z"/>
    <path d="M274.563,93.922c7.031-10.406,15.938-19.469,26.781-25.906c7.844,16.922,23.875,34.203,45.938,46.953   c28.938,16.688,59.625,20.813,79.5,12.844c0.625,4.016,1.219,8,1.219,12.188c0,40.609-28.781,74.453-67.031,82.297   C414.719,214.078,456,168.063,456,112C456,50.156,405.844,0,344,0c-43.219,0-80.313,24.766-98.969,60.641   C256.375,69.969,266.469,81.063,274.563,93.922z"/>
    <path d="M428,252h-14c0,38.656-31.344,70-70,70c-2.5,0-4.906-0.469-7.344-0.75C355.969,341.969,368,369.531,368,400v48h116   c15.469,0,28-12.531,28-28v-84C512,289.594,474.438,252,428,252z"/>
  </g>
</svg>
